<svg id="svg5" width="100%" version="1.1" viewBox="0 0 86.38 21.672" xmlns="http://www.w3.org/2000/svg"> <g id="layer1" transform="translate(-45.734 -138.46)" fill="#ed7a69"> <path id="path273" d="m51.893 138.47c-0.78019-0.0407-1.1612 0.79427-1.0293 1.4703 0.01639 2.6042-0.03229 5.214 0.02344 7.8148 0.17177 0.94248 1.5039 1.0198 2.1406 0.52735 0.56517-0.72362 0.17902-1.7289 0.29297-2.5734-0.03412-2.173 0.06646-4.3587-0.04688-6.5242-0.15124-0.63033-0.8204-0.77512-1.3809-0.71484zm-3.2471 0.0576c-0.78019-0.0407-1.1612 0.79427-1.0293 1.4703 0.01639 2.6042-0.03229 5.214 0.02344 7.8148 0.17177 0.94248 1.5039 1.0198 2.1406 0.52735 0.56517-0.72362 0.17902-1.7289 0.29297-2.5734-0.03412-2.173 0.06646-4.3587-0.04688-6.5242-0.15124-0.63033-0.8204-0.77512-1.3809-0.71484zm6.7446 0.59779c-0.84115-0.0522-1.1686 0.88159-0.99414 1.5742 0.84574 1.741 0.31183 0.78336 1.9512 3.0488 0.47824 0.60952 1.0109 1.1775 1.6016 1.6797-1.065 0.59372-2.2824 0.82875-3.3984 1.2676-0.6413 0.47957-0.46612 1.634 0.14648 2.0664 0.83238 0.31582 1.7068-0.21484 2.5185-0.40304 1.0182-0.34626 1.9975-0.81001 2.9092-1.3802 1.6223 0.91338 3.4004 1.6236 5.2402 1.9141 0.96501-0.0415 1.2872-1.4799 0.69922-2.1094-0.75444-0.4774-1.7271-0.43708-2.5371-0.81614-0.30782-0.22196-1.5845-0.34365-1.0786-0.7365 1.3254-1.2662 2.5719-2.7219 3.2439-4.4446 0.33487-0.90998-0.53237-1.7811-1.4427-1.6629-2.9531 1e-3 -5.9065-3e-3 -8.8594 2e-3zm7.2148 2.3652c-0.69565 1.0028-1.5551 1.8948-2.5332 2.625-0.95005-0.72235-1.7842-1.6065-2.4102-2.625zm-13.656 7.4102c-0.9411-0.0601-1.6428 0.84339-1.5059 1.743 0.03792 1.7085-0.07338 3.4323 0.05078 5.132 0.26953 0.86479 1.5386 0.90598 2.1602 0.42382 0.56495-0.72919 0.17885-1.7406 0.29297-2.5891v-2.2976c4.0117-1e-5 8.0234 0 12.035 0 0.04563 1.4837-0.08823 2.9855 0.06055 4.459 0.30501 0.8314 1.5307 0.85216 2.1465 0.38086 0.57274-0.72563 0.18106-1.7392 0.29688-2.5871-0.06301-1.2427 0.12815-2.5133-0.09766-3.7391-0.35579-1.0232-1.5662-0.97421-2.4473-0.92774-4.3307 1e-3 -8.6617-3e-3 -12.992 2e-3zm6.8262 2.4394c-0.83868-0.0487-1.2044 0.84465-1.1934 1.5527-0.43368 2.2055-2.6465 3.4013-4.6084 4.0397-1.2078 0.45855-2.5093 0.59366-3.7373 0.9525-0.77118 0.45172-0.60155 1.8194 0.15234 2.1973 0.92324 0.19498 1.8575-0.2684 2.7695-0.39844 2.711-0.72483 5.6302-1.8918 7.1445-4.4062 0.54649-0.98704 0.94729-2.1474 0.83008-3.2812-0.15372-0.60909-0.82971-0.70249-1.3574-0.65625zm1.7871 3.7109c-0.85041 0.0728-1.2115 1.2621-0.85742 1.9375 0.59336 0.65273 1.5993 0.66429 2.3673 1.0406 1.9809 0.67123 3.939 1.4258 5.9335 2.0473 0.95856 0.15001 1.4256-1.1193 1.1328-1.8672-0.54211-0.70486-1.5707-0.69272-2.3277-1.0716-2.0123-0.68171-4.0021-1.4468-6.0277-2.0788-0.07335 2e-3 -0.14744-0.025-0.2207-8e-3z" stroke-width=".26458"/> <path id="path275" d="m69.138 138.78c-0.79525-0.0459-1.1887 0.80266-1.0547 1.4918 0.05903 0.95202-0.29998 2.3506 0.81257 2.8309 0.9256 0.29981 1.9325 0.0736 2.8906 0.14408v4.291c-1.227 0.0572-2.4816-0.11101-3.6934 0.0762-0.81364 0.31692-0.8438 1.5817-0.30078 2.1484 0.73627 0.50946 1.7171 0.14921 2.5539 0.25781 0.48879 0.12169 1.6395-0.35546 1.32 0.4975-0.25646 2.7823-1.6371 5.3855-3.7119 7.2414-0.74818 0.76259 0.1595 2.0301 1.0665 2.0619 0.85-0.1193 1.3121-1.001 1.9003-1.5394 2.0407-2.2557 3.1072-5.2532 3.3086-8.2614 1.1747-0.0487 2.3698 0.0945 3.5332-0.0644 0.82366-0.31449 0.868-1.5887 0.32422-2.166-0.73381-0.50079-1.7049-0.14412-2.5363-0.25195-0.54954-0.0706-1.5437 0.30334-1.2605-0.6v-3.691c1.0976-0.0589 2.2264 0.11514 3.3066-0.0801 0.79325-0.32784 0.82202-1.5766 0.2793-2.1348-0.7361-0.48873-1.6992-0.13732-2.5285-0.24414h-4.7605c0.04423-0.72788 0.11305-1.8722-0.86328-1.9961-0.19474-0.0193-0.39065-0.0159-0.58594-0.0117zm11.314 1.2637c-0.96915-0.0709-1.6916 0.86617-1.5547 1.7898 0.01449 5.4298-0.02887 10.862 0.02148 16.29 0.09419 1.0073 1.1886 1.4015 2.0703 1.2656 1.9205-0.0398 3.8546 0.0776 5.7672-0.0545 0.98688-0.16893 1.2361-1.2863 1.1254-2.1354-0.01713-5.299 0.03413-10.601-0.02539-15.898-0.11566-0.98746-1.1849-1.395-2.0645-1.2598-1.7799 1e-3 -3.5601-3e-3 -5.3398 2e-3zm4.9023 2.5254v14.293h-3.9297v-14.293h3.9297zm-10.027 9.5938c-0.77303 0.0597-1.7705 0.7374-1.4082 1.623 0.78554 1.5182 1.5251 3.0754 2.3906 4.5469 0.63874 0.70032 1.8213 0.11134 2.1484-0.62109 0.1411-0.90398-0.65002-1.6243-0.93616-2.433-0.55146-0.94034-0.89726-2.0266-1.5677-2.8834-0.1687-0.15479-0.39907-0.23582-0.62695-0.23242z" stroke-width=".26458"/> <path id="path277" d="m102.74 138.53c-0.78541-0.049-1.1926 0.78398-1.0547 1.4703v2.0277c-0.76161 0.0509-1.9261-0.26874-2.2656 0.67773-0.19965 0.71052-0.0554 1.8001 0.86329 1.8594 0.4245 0.13767 1.3121-0.24067 1.4023 0.21172-0.0195 3.6841 0.24516 7.4392-1.1898 10.926-0.21028 0.31022-0.30677 1.3206-0.70351 0.69508-0.24457-0.31607-0.96042 0.0319-0.81961-0.49042-0.0199-5.0674 0.0396-10.14-0.0293-15.204-0.0993-0.98888-1.1856-1.3247-2.0371-1.2051-1.8125 0.0384-3.6383-0.0755-5.443 0.0542-1.0308 0.17511-1.1812 1.3598-1.0902 2.2142v14.441c-0.73011-0.15124-1.4906 0.41558-1.377 1.1938-0.14045 0.75018 0.50812 1.4521 1.2723 1.3082h8.7258c-0.0885 0.83286 0.92654 1.5057 1.6816 1.3301 0.77032-0.36785 1.0165-1.3118 1.4566-1.9869 1.9167-3.578 2.122-7.74 2.0336-11.713 0.069-0.55194-0.13672-1.3786 0.1-1.7629h3.2223v12.916c-0.79428 0.10082-1.9384-0.3192-2.4277 0.53711-0.30347 0.71763-0.15795 1.934 0.80664 2.002 1.0599-0.042 2.1592 0.14329 3.1953-0.10742 1.1035-0.40623 0.9087-1.7426 0.90625-2.6726-0.0213-4.6664 0.0423-9.3379-0.0312-14.001-0.11262-0.98646-1.1953-1.3513-2.0586-1.2226h-3.7129c-0.06-0.9583 0.11848-1.9523-0.084-2.8906-0.20323-0.56381-0.82154-0.65176-1.3418-0.60742zm-6.2246 3.4727v2.6894h-3.6836v-2.6894h3.6836zm0 5.1934v3.4785h-3.6836v-3.4785h3.6836zm0 5.9824v3.0293h-3.6836v-3.0293h3.6836z" stroke-width=".26458"/> <path id="path279" d="m129.61 139.03c-5.4266 0.60843-10.893 0.37896-16.34 0.44141-1.0012 0.12465-1.1314 1.5801-0.5332 2.1953 0.73381 0.5008 1.7049 0.14413 2.5363 0.25195h5.2352v3.0274c-2.3674 0.0318-4.7466-0.0621-7.1072 0.0441-0.88869 0.24246-0.95091 1.5798-0.39283 2.1629 0.73382 0.50079 1.7049 0.14413 2.5363 0.25195h4.9637v3.0957c-2.8706 0.0149-5.7452-0.0294-8.6133 0.0215-0.97137 0.15866-1.0782 1.5918-0.48242 2.1914 0.7361 0.48873 1.6992 0.13732 2.5285 0.24415h6.5672v4.0898c-0.8174 0.11573-1.9391-0.33062-2.4961 0.48437-0.32689 0.70414-0.20085 1.925 0.75781 2.0078 1.1201-0.0398 2.2798 0.14741 3.377-0.10547 1.1063-0.40318 0.91379-1.7417 0.91016-2.6727v-3.8039c2.7338-0.015 5.4719 0.0295 8.2031-0.0215 0.96367-0.15383 1.0631-1.5281 0.53515-2.1602-0.7377-0.53713-1.7334-0.16406-2.5793-0.27539h-6.159v-3.0957c2.2319-0.0334 4.4763 0.065 6.7009-0.0461 0.89146-0.24119 0.95322-1.59 0.38501-2.1688-0.7361-0.48873-1.6992-0.13732-2.5285-0.24414h-4.5574v-3.0469c2.3646-0.0698 4.7446-0.16495 7.0859-0.48633 0.90694-0.34515 0.8289-1.8511 0.043-2.2871-0.18354-0.071-0.37858-0.11264-0.57617-0.0957z" stroke-width="2" style="paint-order:stroke fill markers"/> </g>
</svg>